<?xml version="1.0" encoding="utf-8"?>
<!-- Generator: Adobe Illustrator 21.1.0, SVG Export Plug-In . SVG Version: 6.00 Build 0)  -->
<svg version="1.1" id="Calque_1" xmlns="http://www.w3.org/2000/svg" xmlns:xlink="http://www.w3.org/1999/xlink" x="0px" y="0px"
	 viewBox="0 0 432 432" style="enable-background:new 0 0 432 432;" xml:space="preserve">
<style type="text/css">
	.st0{fill:#591C00;}
	.st1{fill:#999999;}
	.st2{fill:#FCC062;}
	.st3{fill:#DA7D81;}
	.st4{fill:#C1272D;}
	.st5{fill:#1A1A1A;}
	.st6{fill:#736357;}
	.st7{fill:#8D819B;}
	.st8{fill:#BF7F99;}
	.st9{fill:#881B30;}
	.st10{fill:#A58B66;}
	.st11{fill:#781F00;}
	.st12{fill:#852A00;}
	.st13{fill:#AD8C52;}
	.st14{fill:#859660;}
	.st15{fill:#D3AB99;}
	.st16{fill:#A12E37;}
	.st17{fill:#8F8279;}
	.st18{fill:#758295;}
	.st19{fill:#60373C;}
	.st20{fill:#EFD333;}
	.st21{fill:#CE74B4;}
	.st22{fill:#313E2B;}
	.st23{fill:#5A1700;}
	.st24{fill:#BC79A7;}
	.st25{fill:#877F9A;}
	.st26{fill:#CC8FC1;}
	.st27{fill:#333333;}
	.st28{fill:#C3CD84;}
	.st29{fill:#7E97A5;}
	.st30{fill:#627C55;}
	.st31{fill:#B3B3B3;}
	.st32{fill:#AD3642;}
	.st33{fill:#2A7893;}
	.st34{fill:#669AB4;}
	.st35{fill:#AF689C;}
	.st36{fill:#6EA892;}
	.st37{fill:#663D2C;}
	.st38{fill:#BBBA2A;}
	.st39{fill:#A09830;}
	.st40{fill:#799D7D;}
	.st41{fill:#C69C6D;}
	.st42{fill:#BC79AD;}
	.st43{fill:#BC8A70;}
	.st44{fill:#ADADAD;}
	.st45{fill:#606981;}
	.st46{fill:#4D4D4D;}
	.st47{fill:#70BEB2;}
	.st48{fill:#11937F;}
	.st49{fill:#C78287;}
	.st50{fill:#944F54;}
	.st51{fill:#534741;}
	.st52{fill:#D6A354;}
	.st53{fill:#E7AC22;}
	.st54{fill:#89BBA2;}
	.st55{fill:#BF4D28;}
	.st56{fill:#88382D;}
	.st57{fill:#D86C62;}
	.st58{fill:#B57C53;}
	.st59{fill:#E6C34F;}
	.st60{fill:#A0392B;}
	.st61{fill:#FFFFFF;}
	.st62{fill:#AD7460;}
	.st63{fill:#939E9E;}
	.st64{fill:#2E4DA7;}
	.st65{fill:#39B54A;}
	.st66{fill:#D1417E;}
	.st67{fill:#FD8402;}
	.st68{fill:#727D6D;}
	.st69{fill:#BAAC91;}
	.st70{fill:#3F4650;}
	.st71{fill:#653F34;}
	.st72{fill:#3F3C35;}
	.st73{fill:#A84A5C;}
	.st74{fill:#3B5347;}
	.st75{fill:#854B16;}
	.st76{fill:#5B6F69;}
	.st77{fill:#767094;}
	.st78{fill:#08B19A;}
	.st79{fill:#AAB1A7;}
	.st80{fill:#4C5839;}
	.st81{fill:#6E2521;}
	.st82{fill:#ED6184;}
	.st83{fill:#A4B449;}
	.st84{fill:#EB7466;}
</style>
<g>
	<g>
		<path class="st17" d="M252.9,226.5c0-0.8,0-1.6,0-2.4c-0.1-1.4-0.4-2.8-0.8-4.1c-0.3-0.9-0.8-1.8-1.3-2.6c-1.5-2.1-3.4-4-5.4-5.7
			c-4.4-3.8-9.1-7-14.1-10c-2.7-1.6-5.3-3.2-7.9-4.9c-4.8-3.3-8.4-7.6-10.8-12.9c-1.3-2.8-2.1-5.7-2.7-8.7c-0.6-3.3-1.2-6.7-1.7-10
			c-0.4-2.5-0.9-5.1-1.3-7.6c-0.8-4.1-1.6-8.2-2.7-12.2c-1.5-5.3-3.5-10.5-5.7-15.6c-1-2.4-2-4.7-2.9-7.1c-0.5-1.3-0.9-2.6-0.9-3.9
			c0-0.5,0-1,0.2-1.4c0.2-0.8,0.9-1.1,1.7-0.9c0.4,0.1,0.7,0.3,1,0.5c0.9,0.6,1.7,1.3,2.4,2.1c1.9,2.2,3.5,4.6,4.7,7.3
			c1.8,3.8,3,7.8,4,11.9c0.3,1.3,0.6,2.5,0.9,3.8c0.1,0.2,0.1,0.5,0.3,0.7c0.1-0.2,0.2-0.4,0.2-0.6c0.9-3.2,1.6-6.4,2-9.7
			c0.7-5.3,1.4-10.6,2.1-15.9c0.3-2.3,0.5-4.7,0.6-7.1c0.2-3.5-0.3-6.9-0.8-10.4c-0.6-3.7-1.6-7.3-2.5-10.9
			c-0.6-2.6-1.3-5.1-1.6-7.7c-0.1-1.1-0.2-2.2,0.1-3.2c0.1-0.4,0.2-0.8,0.4-1.2c0.4-0.7,1-1,1.7-0.7c0.5,0.2,0.9,0.5,1.4,0.8
			c0.7,0.6,1.3,1.3,1.6,2.1c0.8,1.6,1.4,3.2,2.2,4.8c0.2,0.5,0.4,1,0.7,1.6c0.3-0.3,0.5-0.6,0.6-0.8c0.5-0.9,0.9-1.8,1.3-2.7
			c1.2-3,2-6.2,2.7-9.4c0.2-1.1,0.5-2.2,0.8-3.3c0.1-0.5,0.3-0.9,0.5-1.3c0.4-0.8,1.2-1,2-0.6c0.6,0.3,1,0.7,1.4,1.3
			c0.9,1.2,1.4,2.6,1.7,4.1c0.5,2.1,0.5,4.3,0,6.4c-0.5,2.8-1.2,5.6-1.8,8.4c-1.2,5.5-2.4,11-3.5,16.6c-0.5,2.6-0.8,5.3-1.2,7.9
			c-0.1,0.6,0,1.1,0.1,1.7c0.1,0.5,0.3,0.6,0.8,0.5c0.4-0.1,0.9-0.3,1.2-0.6c0.7-0.6,1.4-1.2,2.1-1.8c3-3.1,5.2-6.6,7.1-10.5
			c0.7-1.6,1.4-3.2,2.1-4.7c0.3-0.7,0.6-1.4,1-2c1-1.6,2.3-1.6,3.5-0.1c0.8,1.1,1.2,2.3,1.4,3.6c0.4,2.7,0.1,5.4-0.9,8
			c-1,2.7-2.4,5.2-3.9,7.6c-1.8,2.8-3.7,5.5-5.5,8.2c-4.2,6.3-7.6,12.9-10.1,20c-1.7,4.9-2.8,10-3.1,15.2c-0.3,4.5-0.1,9,1.1,13.4
			c1,3.9,2.6,7.6,5,10.9c1.2,1.7,2.7,3.1,4.2,4.5c0.9,0.8,1.9,1.6,2.8,2.5c0.2,0.1,0.3,0.3,0.6,0.4c0-0.2,0.1-0.2,0.1-0.3
			c-0.1-3.2,0.5-6.4,1.3-9.5c0.9-3.9,1.6-7.9,1.9-11.9c0.3-3.5,0.3-7,0.1-10.5c-0.2-3.4-0.7-6.7-1.2-10.1c-0.3-2.2-0.6-4.4-0.6-6.7
			c0-0.4,0-0.8,0.1-1.2c0.2-0.9,1-1.3,1.8-0.8c0.5,0.3,0.9,0.7,1.3,1.1c0.9,1,1.5,2.3,2,3.6c0.6,1.7,0.9,3.4,1.2,5.1
			c0.2,1.1,0.4,2.2,0.5,3.3c0,0.2,0.1,0.3,0.3,0.6c0-0.1,0.1-0.2,0.1-0.3c2.4-3.4,4.9-6.7,6.8-10.4c0.9-1.8,1.7-3.5,2.6-5.3
			c0.8-1.6,1.7-3.2,2.5-4.7c0.5-0.9,1.1-1.8,1.8-2.6c0.3-0.4,0.6-0.8,1-1.1c0.9-0.7,1.9-0.5,2.5,0.4c0.4,0.6,0.5,1.2,0.6,1.9
			c0.1,1.3,0,2.6-0.2,3.8c-0.8,5.6-2.8,10.8-5.6,15.7c-1,1.8-2,3.6-3,5.3c-2,3.5-3.7,7.1-5,11c-1.3,3.9-2.7,7.7-3.7,11.6
			c-0.7,2.8-1.2,5.7-1.2,8.6c0,1.7,0.2,3.3,0.7,4.9c1.1,3.8,3.5,6.5,6.9,8.4c0.2,0.1,0.4,0.2,0.5,0.2c0.7,0.3,1.4,0.2,2.1-0.3
			c0.8-0.7,1.5-1.5,2-2.5c0.6-1.1,1-2.3,1.3-3.5c0.7-2.3,0.8-4.6,0.9-6.9c0-1,0.1-2,0.1-3.1c0-0.7,0.2-1.3,0.5-1.9
			c0.7-1.2,1.9-1.7,3.2-1.1c0.6,0.3,1.1,0.8,1.5,1.3c0.9,1.2,1.2,2.5,1.3,3.9c0.1,1.7-0.1,3.3-0.3,5c-0.4,3.1-0.9,6.2-1.3,9.3
			c-0.1,0.7-0.1,1.4-0.1,2.1c-0.1,2.2,0.2,4.3,0.9,6.3c0.8,2.4,1.9,4.6,3.4,6.7c1.1,1.5,2.5,2.8,4.2,3.7c2.8,1.5,6,0.9,8.1-1.6
			c2.3-2.7,3.6-5.8,4.2-9.3c0.8-4.4,0.8-8.9,0.2-13.4c-0.2-1.8-0.4-3.7-0.6-5.5c0-0.5,0-1,0-1.5c0-0.3,0.1-0.6,0.2-0.8
			c0.4-1,1.3-1.4,2.3-1c0.4,0.1,0.7,0.3,1,0.5c1.2,0.7,2.1,1.7,2.8,2.9c1,1.7,1.6,3.6,2.1,5.6c0.3,1.3,0.5,2.6,0.8,3.8
			c0.1,0.5,0.3,0.9,0.5,1.4c0.3,0.7,0.9,1,1.6,0.6c0.4-0.2,0.8-0.5,1.2-0.7c1.2-0.9,2.1-2,2.9-3.1c2.1-2.9,3.5-6.1,4.4-9.6
			c1-3.7,1.7-7.4,2.3-11.2c0.5-3.3,0.8-6.7,0.8-10c0-6.4-1.5-12.4-4.5-18c-1.4-2.5-2.8-5.1-4.2-7.6c-2.8-5-4.5-10.3-5.8-15.8
			c-0.2-0.9-0.3-1.8-0.4-2.7c0-0.3,0-0.6,0.1-0.9c0.2-0.7,0.7-0.9,1.3-0.6c0.4,0.2,0.7,0.5,0.9,0.8c0.5,0.7,1,1.5,1.4,2.3
			c1.1,2.2,2.2,4.4,3.2,6.6c1.6,3.5,3.6,6.8,5.9,9.9c0.5,0.6,1,1.2,1.5,1.8c0.2,0.3,0.5,0.5,0.8,0.7c0.5,0.4,0.9,0.4,1.4,0.1
			c0.4-0.3,0.7-0.6,1.1-0.9c1.2-1.1,2.2-2.4,3-3.8c1.2-1.9,2.3-3.9,3.4-5.9c0.4-0.7,0.8-1.4,1.2-2.1c0.2-0.4,0.5-0.7,0.8-1.1
			c1.2-1.3,3-1,3.9,0.5c0.5,0.9,0.7,1.8,0.8,2.8c0.2,2.7-0.4,5.2-1.3,7.7c-1,2.7-2.1,5.4-3.2,8.2c-1.3,3.3-2,6.8-2.5,10.4
			c-0.4,3.1-0.7,6.2-0.8,9.3c-0.1,2-0.2,4.1-0.3,6.1c-0.1,2.2-0.2,4.5-0.3,6.7c0,0.6,0,1.2,0.1,1.8c0.3,1.6,1.4,2.2,2.9,1.7
			c0.9-0.3,1.7-0.8,2.4-1.4c1.3-1,2.3-2.2,3.3-3.5c2.8-3.7,4.8-7.8,6.3-12.2c1.2-3.5,1.9-7.2,2.3-10.9c0.4-3.9,0.7-7.8,0.8-11.7
			c0.1-3,0.3-6.1,0.3-9.1c0.1-3-0.2-5.9-0.9-8.8c-0.3-1.1-0.6-2.1-1-3.2c-1.4-3.5-3.3-6.7-5.7-9.6c-1.9-2.3-3.9-4.6-5.8-6.9
			c-1.4-1.7-2.7-3.4-3.9-5.3c-0.5-0.8-1-1.7-1.2-2.7c-0.1-0.3-0.1-0.6-0.1-0.9c0-1,0.8-1.7,1.8-1.5c0.6,0.1,1.2,0.3,1.8,0.6
			c0.7,0.4,1.5,0.8,2.1,1.3c3.5,2.5,6.9,5.3,9.9,8.5c0.4,0.4,0.9,0.9,1.3,1.3c0.6,0.6,0.9,0.6,1.5,0c0.6-0.6,1.1-1.2,1.5-1.8
			c1.4-2,2.2-4.3,2.7-6.7c0.8-3.8,0.5-7.6-0.3-11.3c-0.7-3.3-1.8-6.6-2.9-9.8c-0.9-2.4-1.6-4.9-1.9-7.5c-0.1-0.9-0.1-1.8,0.1-2.6
			c0.4-1.8,1.7-2.2,3.1-1.1c0.4,0.3,0.8,0.6,1.1,1c4.2,4.7,7.5,10,10,15.8c1.4,3.3,1.8,6.8,1.6,10.3c-0.2,3.4-0.9,6.7-1.9,10
			c-0.8,2.7-1.7,5.5-2.5,8.2c-0.2,0.6-0.3,1.2-0.4,1.8c0,0.2,0,0.5,0,0.7c0.4,0.1,0.7,0,0.9-0.2c0.5-0.3,0.9-0.7,1.3-1.1
			c1.2-1.3,2.3-2.7,3.5-4c0.6-0.7,1.2-1.4,1.9-2.1c0.4-0.4,0.9-0.8,1.4-1c1-0.5,2-0.3,2.7,0.6c0.6,0.8,0.8,1.7,0.9,2.7
			c0,1.1-0.2,2.3-0.7,3.3c-0.6,1.4-1.3,2.7-2,4c-2.5,4.4-4.5,9-5.9,13.9c-0.9,3-1.5,6.1-2.1,9.2c-0.6,3.5-1.2,7.1-1.7,10.6
			c-0.4,2.5-0.7,5-0.9,7.6c-0.6,5.9-1.6,11.7-3.2,17.4c-0.2,0.6-0.2,1.2-0.4,1.8c0,0.2,0,0.4,0,0.5c0,0.3,0.2,0.5,0.5,0.5
			c0.3,0,0.7,0,1-0.1c1.1-0.4,2.2-0.9,3.2-1.4c0.9-0.4,1.7-1,2.6-1.4c0.5-0.3,1.1-0.5,1.7-0.6c0.9-0.2,1.5,0.3,1.8,1.2
			c0.2,0.8,0.1,1.6-0.1,2.4c-0.4,1.5-1,2.8-1.9,4c-1.8,2.6-3.9,4.8-6.5,6.7c-1.9,1.4-3.9,2.6-5.9,3.7c-4.5,2.4-9,4.8-13.6,7
			c-5.4,2.7-10.7,5.5-15.7,8.7c-2.2,1.4-4.4,3-6.5,4.5c-1.6,1.2-2.8,2.7-3.7,4.5c-1.3,2.8-2.1,5.8-2.6,8.8c-0.2,1.1-0.2,2.3,0.1,3.5
			c0.2-0.3,0.3-0.5,0.4-0.6c0.7-1.2,1.4-2.4,2.2-3.5c1.1-1.5,2.3-2.8,3.8-3.9c2.8-2,5.6-3.9,8.8-5.2c2.5-1,5-1.7,7.6-2.2
			c0.7-0.1,1.4-0.2,2.2-0.2c1.2,0,2,0.5,2.7,1.4c0.6,1,0.9,2.1,1.1,3.2c0.4,2.8,0.1,5.5-0.6,8.2c-0.5,1.7-1,3.5-1.7,5.2
			c-0.7,2-1.9,3.7-3.3,5.2c-2,2.2-4.6,3.4-7.5,3.6c-2.3,0.2-4.6,0.2-6.9,0.4c-1.3,0.1-2.6,0.3-3.8,0.5c-2.8,0.6-4.3,2.5-4.9,5.2
			c-0.3,1.5-0.3,3-0.1,4.6c0.9,7.3,2.3,14.5,4,21.7c0.1,0.6,0.3,1.1,0.5,1.7c0.7,2.4,1.5,4.9,2.2,7.3c0.3,1,0.4,2.1,0.5,3.2
			c0.2,1.8-0.6,3.1-1.9,4.1c-0.9,0.8-2.1,1.2-3.2,1.6c-1.8,0.7-3.7,1-5.7,1.4c-2.5,0.5-5.1,0.7-7.7,0.7c-4.3,0.1-8.6,0-12.9-0.2
			c-3.7-0.2-7.4-0.7-10.9-2c-1.8-0.6-3.3-1.5-4.6-2.9c-0.7-0.8-1-1.7-0.9-2.7c0.2-1.8,0.6-3.6,1-5.3c0.8-2.9,1.6-5.8,2.5-8.6
			c0.8-2.5,1.3-5,1.6-7.5c0.3-2.3,0.6-4.6,0.9-6.8c0.3-3,0.4-6.1,0.2-9.1c0-0.3-0.1-0.7-0.1-1c-0.1-1-0.7-1.7-1.7-1.8
			c-0.6-0.1-1.3-0.2-1.9-0.2c-1-0.1-2-0.1-3-0.1c-6.2,0-11.1-2.8-15.1-7.3c-1.8-2-3.2-4.2-4.4-6.6c-0.9-1.8-1.8-3.7-2.6-5.5
			c-0.2-0.4-0.4-0.9-0.5-1.3c-0.3-0.9-0.1-1.5,0.7-2c0.6-0.4,1.2-0.7,1.8-0.9c2.9-1,5.9-1.7,9-1.7c3.3-0.1,6.6,0.5,9.6,1.9
			c2.1,1,3.9,2.5,5.3,4.4c0.4,0.6,0.8,1.2,1.3,1.9C252.8,226.5,252.9,226.5,252.9,226.5z"/>
	</g>
	<g>
		<path class="st18" d="M181.9,223.7c-2.8,15.7-2.1,31.2,0.3,46.8c0-0.2,0.1-0.5,0.1-0.7c0-0.3,0-0.5,0.1-0.8
			c0.4-4.7,1.1-9.3,2.4-13.8c1.5-4.8,3.6-9.2,6.8-13.1c1.5-1.8,3.2-3.3,5.1-4.6c1.8-1.1,3.9-1.8,6-1.8c2.7,0,4.9,1.1,6.7,3.1
			c1.6,1.8,2.6,4,3.2,6.3c0.8,2.8,1.3,5.6,1.2,8.5c-0.1,2.8-0.1,5.6-0.2,8.3c-0.1,1.6-0.2,3.2-0.2,4.8c-0.1,4-0.3,8.1-0.3,12.1
			c0,3,0.2,6,1,8.9c0.3,1,0.7,2,1.1,2.9c0.7,1.7,1.9,2.7,3.7,3.3c0.8,0.2,1.6,0.1,2.3-0.4c1.2-0.8,2.2-1.8,3-3
			c2.3-3.2,4.1-6.7,5.3-10.4c0.6-1.8,1.3-3.6,1.9-5.4c0.1-0.3,0.2-0.6,0.3-0.9c0.1-0.3,0.2-0.6,0.4-0.9c0.4-0.6,1.1-0.9,1.7-0.7
			c0.7,0.2,1.2,0.8,1.1,1.5c0,0.5-0.2,1.1-0.4,1.6c-1,2.9-2.1,5.7-3.2,8.6c-0.9,2.4-1.8,4.8-3,7c-1.2,2.4-2.7,4.7-4.4,6.8
			c-1.5,1.8-3.4,3-5.9,3.1c-1.5,0.1-3-0.2-4.4-0.7c-2.6-0.9-4.6-2.6-6-4.9c-1.6-2.6-2.5-5.5-2.9-8.5c-0.6-4-0.7-8-0.5-12
			c0.1-1.4,0-2.9,0.1-4.3c0.1-3,0.3-5.9,0.4-8.9c0.1-1.5,0.1-3,0.2-4.5c0.1-2.6,0.3-5.3,0.5-7.9c0.1-1.7-0.1-3.4-0.5-5.1
			c-0.1-0.4-0.2-0.7-0.3-1.1c-0.8-1.9-2.4-2.8-4.5-2.2c-0.6,0.2-1.1,0.4-1.6,0.7c-2,1.1-3.7,2.6-5.1,4.4c-2.7,3.5-4.4,7.4-5.7,11.6
			c-1,3.3-1.6,6.6-1.9,10c-0.4,4.3-0.3,8.7-0.3,13c0,1.1-0.1,2.2-0.3,3.2c-0.2,1.3-0.8,2.3-2,3c-1.3,0.7-2.7,1.3-4.3,0.8
			c-1.3-0.4-2.3-1.3-2.8-2.5c-0.4-1-0.8-2.1-1.1-3.2c-1-4.3-1.8-8.6-2.3-13c-0.5-4.3-0.8-8.6-1.2-12.9c0-0.4-0.1-0.7-0.1-1.1
			c-0.1,0.1-0.3,0.2-0.3,0.3c-2.6,3.2-5.3,6.3-8.5,8.9c-0.3,0.2-0.4,0.5-0.4,0.9c-0.5,5.7-1.9,11.2-4.2,16.5
			c-1.1,2.5-2.5,4.8-4.3,6.9c-3,3.5-6.9,5.4-11.5,5.8c-7.6,0.6-16.4-3.1-19.9-12.7c-0.8-2.2-1.4-4.5-1.7-7c-0.3-0.1-0.6-0.2-0.8-0.2
			c-9.6-2.7-17.5-7.9-23.4-16.1c-2.2-3-3.8-6.2-4.6-9.8c-0.5-2.4-0.7-4.9-0.6-7.4c0.2-5,1.7-9.6,4.5-13.8c2.8-4.3,6.6-7.4,11.2-9.6
			c4-2,8.2-3.1,12.7-3.5c7.9-0.8,15.2,1.2,21.9,5.4c7.1,4.4,12.6,10.2,16.5,17.6c1.9,3.6,3.1,7.6,3.8,11.6c0.5,2.8,0.8,5.7,0.8,8.5
			c0,0.2,0,0.3,0,0.7c0.3-0.2,0.5-0.3,0.7-0.5c1.6-1.3,3.1-2.9,4.4-4.5c1.1-1.3,2.2-2.7,3.2-4c0.2-0.2,0.2-0.5,0.2-0.8
			c0-1.1,0-2.3,0-3.4c0.1-4.6,0.3-9.2,0.8-13.8c0.3-2.5,0.6-5.1,0.9-7.6c-0.1,0-0.3-0.1-0.4-0.2c-5.5-1-10.9-2.7-16.2-4.6
			c-5.7-2-11.4-4.4-17-6.6c-3.4-1.3-6.8-2.7-10.3-3.6c-5.3-1.4-10.6-2-16.1-1.5c-10.1,0.9-18.7,5-25.6,12.6c-1.4,1.5-2.5,3.2-3.6,5
			c-0.3,0.5-0.7,1.1-1,1.6c-0.1,0.2-0.3,0.4-0.4,0.5c-0.6,0.4-1.3,0.2-1.4-0.5c0-0.3,0-0.7,0.1-1c0.5-1.9,1.3-3.5,2.4-5.1
			c1.9-2.9,4.3-5.4,7-7.7c5.6-4.7,12-7.7,19.2-8.9c3.7-0.6,7.4-0.7,11.2-0.3c5.5,0.5,10.8,2,16,4c4.7,1.8,9.4,3.8,14.1,5.7
			c5.4,2.2,10.8,4.3,16.4,5.9c1.8,0.5,3.7,0.9,5.6,1.4c0.2,0,0.4,0.1,0.7,0.1c0.2-1.1,0.5-2.1,0.7-3.1c1.1-4.8,2.6-9.5,4.9-13.9
			c2.4-4.6,5.6-8.4,9.9-11.1c3.1-2,6.4-3.1,10.1-3c5.5,0.1,10.4,3.5,12.2,8.5c1.2,3.2,1.1,6.4,0.1,9.6c-1.4,4.5-4.1,8.2-8,10.9
			c-3.8,2.6-8,4.2-12.5,5.1c-2.7,0.5-5.4,0.7-8.1,0.8C182.4,223.6,182.2,223.7,181.9,223.7z M129.3,266.4c0.3,0,0.5,0.1,0.7,0.1
			c1.9,0.1,3.7,0,5.6-0.1c4.3-0.4,8.6-1.1,12.8-2.2c3.7-1,7.3-2.3,10.6-4.2c0.5-0.3,0.7-0.6,0.7-1.1c0.1-2.9-0.1-5.8-0.6-8.7
			c-1-5.7-3.1-11-6.5-15.7c-3.9-5.3-8.5-9.6-14.3-12.7c-5.8-3-11.9-4.5-18.4-3.5c-5,0.8-9.6,2.6-13.6,5.6c-2,1.5-3.6,3.2-4.8,5.4
			c-3.3,6-3.6,12.2-0.7,18.3c3.9,8.4,10.5,13.9,19.1,17c0.2,0.1,0.4,0.1,0.6,0.1c0.1-0.5,0.1-0.9,0.2-1.4c0.5-4.9,1.7-9.6,3.6-14.1
			c0.5-1.1,1-2.2,1.7-3.2c0.6-1,1.5-1.8,2.6-2.3c2.3-1.1,4.8,0.1,5.3,2.6c0.1,0.6,0.1,1.2,0.1,1.7c-0.1,1.2-0.5,2.4-0.9,3.6
			c-1.3,3.8-2.5,7.6-3,11.6C129.5,264.3,129.4,265.3,129.3,266.4z M182.5,220.8c0.4,0,0.7,0,1,0c3.1-0.1,6.1-0.4,9.1-1.2
			c3-0.7,5.8-1.8,8.4-3.5c4.6-3,7.2-7.2,7.7-12.7c0.2-2.3-0.4-4.5-1.8-6.4c-1.5-2.1-3.5-3.2-6.1-3.2c-2,0-3.9,0.7-5.5,1.8
			c-1.8,1.2-3.3,2.8-4.5,4.6c-3.6,5.4-6.1,11.3-7.6,17.6C182.9,218.7,182.7,219.7,182.5,220.8z M158.7,266.9
			c-2.3,1.3-4.5,2.6-6.7,3.8c-2.2,1.2-4.6,2.1-7,2.9c-2.4,0.8-4.9,1.4-7.4,1.7c-2.5,0.3-5.1,0.3-7.6,0.3c0,0.2,0.1,0.4,0.1,0.5
			c0.8,3,2.3,5.5,4.9,7.4c2.7,1.9,5.6,3,8.9,3.2c2.5,0.1,4.8-0.6,6.8-2.2c1.6-1.3,2.8-2.9,3.7-4.6c2.1-3.8,3.4-7.8,4.2-12
			C158.6,267.6,158.7,267.2,158.7,266.9z"/>
		<g>
			<path class="st19" d="M159.4,337.3c0.2,6-2.3,11.9-7.1,16.9c-7,7.2-18.9,12.3-29,12.3h-1.8v-60.8l1.8,0c0,0,0,0,0,0
				C140.1,305.7,158.9,322.2,159.4,337.3z M152.5,337.4c-0.2-4.8-3.9-10.8-9.9-16c-4.9-4.3-10.3-7.2-14.4-7.8v45.7
				C141.1,357.8,152.8,346,152.5,337.4z"/>
			<path class="st19" d="M210.2,347.8l-38.8,1c2.3,4.7,6.5,8.4,11.4,9.9c4.6,1.3,11.9,1.5,20.5-5.6l1.4-1.1l4.3,5.4l-1.4,1.1
				c-6.5,5.3-13.4,8-20.1,8c-2.7,0-5.4-0.5-8-1.4c-8.3-3-14.5-10.3-16.3-19.3c-2.5-11.5,2.1-26.4,10.7-34.5
				c5.1-4.8,10.9-6.6,16.5-5.1c11.2,3.1,19,18.7,19.7,39.8L210.2,347.8z M202.9,340.9c-1-14-5.2-23.7-11.8-26.8
				c-1.4-0.7-2.9-1-4.4-1c-2.7,0-5.5,1-8.1,3c-5.3,4-10.7,13.1-9.1,25.8L202.9,340.9z"/>
			<path class="st19" d="M261,347.8l-38.8,1c2.3,4.7,6.5,8.4,11.4,9.9c4.6,1.3,11.9,1.5,20.5-5.6l1.4-1.1l4.3,5.4l-1.4,1.1
				c-6.5,5.3-13.4,8-20.1,8c-2.7,0-5.4-0.5-8-1.4c-8.3-3-14.5-10.3-16.3-19.3c-2.5-11.5,2.1-26.4,10.7-34.5
				c5.1-4.8,10.9-6.6,16.5-5.1c11.2,3.1,19,18.7,19.7,39.8L261,347.8z M253.7,340.9c-1-14-5.2-23.7-11.8-26.8c-1.4-0.7-2.9-1-4.4-1
				c-2.7,0-5.5,1-8.1,3c-5.3,4-10.7,13.1-9.1,25.8L253.7,340.9z"/>
			<path class="st19" d="M300.1,315.3c3.2,4.7,3.3,10.7,0.4,16.5c-4.1,8-12.9,13.8-23.2,15.3c1.6,1.5,3.3,3.1,5.1,4.7
				c3.5,3.3,7.2,6.6,9.8,9.3l1.2,1.3l-4.8,4.9l-1.3-1.3c-2.5-2.5-6-5.8-9.4-8.9c-2.1-1.9-4.2-3.8-6.1-5.6l0,0.3
				c0.1,4.8,0.2,9.4,0.2,13v1.8h-6.8v-1.8c0-7.4-0.2-16.3-0.5-25.7c-0.3-10.4-0.6-21.2-0.6-31.1v-1.6l1.6-0.1
				C282.7,304.5,294.9,307.8,300.1,315.3z M294.6,319.6c-1.7-2.8-7-7.3-23.6-6.4c0,8,0.4,21.2,0.6,27.4c0.1,0,0.1,0,0.2,0
				c10.5,0,18.7-5.7,22.1-11.3C295.1,327.2,296.8,323.2,294.6,319.6z"/>
		</g>
	</g>
</g>
</svg>
